/* XPM */
static char *_7b8447feef343dfa2436a8e5b85e9e1zreR4YIG6nlTh7Z8[] = {
/* columns rows colors chars-per-pixel */
"40 40 176 2 ",
"   c #7D6579",
".  c #7B6F7A",
"X  c #7E767E",
"o  c #98247C",
"O  c #975647",
"+  c #915150",
"@  c #9F6848",
"#  c #AC7C58",
"$  c #984D72",
"%  c #934F7E",
"&  c #975375",
"*  c #93507F",
"=  c #A05970",
"-  c #8E7B7B",
";  c #A4626A",
":  c #AF747C",
">  c #B17B7E",
",  c #B3865F",
"<  c #908D7C",
"1  c #AD8267",
"2  c #B68963",
"3  c #B78875",
"4  c #9E2587",
"5  c #A73595",
"6  c #945281",
"7  c #985785",
"8  c #975D86",
"9  c #995886",
"0  c #9C5E8A",
"q  c #AC459F",
"w  c #A64899",
"e  c #AF4D9B",
"r  c #AC589D",
"t  c #B15997",
"y  c #866981",
"u  c #896C84",
"i  c #8E6F88",
"p  c #9E628D",
"a  c #99698B",
"s  c #8B7387",
"d  c #847B83",
"f  c #8E738A",
"g  c #987286",
"h  c #91768D",
"j  c #967A92",
"k  c #9C7B95",
"l  c #9D7E98",
"z  c #AB6E83",
"x  c #A2638D",
"c  c #AE7388",
"v  c #B27E87",
"b  c #A36392",
"n  c #A86597",
"m  c #A36B94",
"M  c #A76D99",
"N  c #AC6D9C",
"B  c #A27495",
"V  c #A27B96",
"C  c #AC719E",
"Z  c #A57C9D",
"A  c #AC4CA5",
"S  c #B269A7",
"D  c #AE76A1",
"F  c #AF78A3",
"G  c #B474A4",
"H  c #B27CA5",
"J  c #B57EA9",
"K  c #BC7DAD",
"L  c #BA67B3",
"P  c #C06BC1",
"I  c #8C848C",
"U  c #8E888F",
"Y  c #8F8990",
"T  c #928790",
"R  c #9C8192",
"E  c #948A93",
"W  c #95849A",
"Q  c #9F819B",
"!  c #969197",
"~  c #9F959E",
"^  c #B88783",
"/  c #B68488",
"(  c #B88888",
")  c #A2849D",
"_  c #A48C9D",
"`  c #B68299",
"'  c #A0969F",
"]  c #AE9299",
"[  c #A3A398",
"{  c #AA84A3",
"}  c #AB8CA5",
"|  c #B481A6",
" . c #B68FA7",
".. c #B583AA",
"X. c #B985AE",
"o. c #B38CAC",
"O. c #B989AF",
"+. c #A496A2",
"@. c #A19BA4",
"#. c #AB98A6",
"$. c #A99CA5",
"%. c #B691AF",
"&. c #B49DAC",
"*. c #BA87B0",
"=. c #BC8CB2",
"-. c #B692B0",
";. c #BD93B5",
":. c #B69BB4",
">. c #ACA2A6",
",. c #A7A1AE",
"<. c #ABA5AB",
"1. c #ADAAAE",
"2. c #BAA2A7",
"3. c #B1A6AD",
"4. c #BBA5AD",
"5. c #B2A8AF",
"6. c #AFACB1",
"7. c #B4A3B3",
"8. c #B9A4B4",
"9. c #B3ABB2",
"0. c #BAAAB6",
"q. c #B9A6BA",
"w. c #BCABBC",
"e. c #B7B0B6",
"r. c #B8B0B6",
"t. c #BCB0BA",
"y. c #C29A92",
"u. c #C186B3",
"i. c #C589BA",
"p. c #C28EBA",
"a. c #C090B7",
"s. c #C394BB",
"d. c #C993BD",
"f. c #C69ABE",
"g. c #CA98BF",
"h. c #CCB9AB",
"j. c #C4AEB4",
"k. c #C8A5B8",
"l. c #C3AABB",
"z. c #CFB1BB",
"x. c #BFACC1",
"c. c #BDB3C2",
"v. c #C282C4",
"b. c #C580C8",
"n. c #C793C7",
"m. c #C79CC0",
"M. c #C99DC2",
"N. c #C898CB",
"B. c #C7A2C0",
"V. c #CBA3C5",
"C. c #C4AFC1",
"Z. c #CCA9C7",
"A. c #CDA6C9",
"S. c #CEAAC9",
"D. c #CFAECA",
"F. c #D0ABCA",
"G. c #C3B3C5",
"H. c #C4B9C7",
"J. c #C7B4C8",
"K. c #CEB3CB",
"L. c #C5BBC9",
"P. c #CCBECE",
"I. c #C1C0C3",
"U. c #C3C0C4",
"Y. c #C5C3C7",
"T. c #C6C4C7",
"R. c #C7C5C9",
"E. c #C7C6CA",
"W. c #C8C5C9",
"Q. c #CAC5CB",
"!. c #C9C7CA",
"~. c #C9C7CB",
"^. c #CAC7CB",
"/. c #CAC8CC",
"(. c #CBC9CD",
"). c #CCCBCE",
/* pixels */
"V.M.V.M.M.V.M.V.M.V.V.V.M.V.V.M.V.V.V.B.B.V.V.V.V.V.V.Z.V.V.Z.V.Z.Z.V.Z.Z.Z.Z.Z.",
"M.V.M.V.V.M.V.M.V.M.M.V.V.M.M.V.B.V.V.V.V.V.V.V.Z.V.V.V.V.Z.Z.Z.V.Z.Z.Z.Z.Z.Z.Z.",
"V.V.M.M.V.M.M.V.V.V.B.V.V.M.V.V.V.V.M.V.V.V.V.V.V.V.V.Z.B.Z.V.Z.Z.A.Z.Z.Z.Z.A.Z.",
"M.M.V.V.M.V.V.M.N.V.V.B.V.V.M.V.V.V.V.V.V.V.V.V.V.Z.V.V.Z.V.Z.Z.V.Z.Z.Z.Z.Z.Z.D.",
"M.B.} k l k k k l k l l l -.A.:.{ l W ) ) Q ) { ) ) } M.Z.Z.V.Z.Z.Z.V.Z.Z.Z.Z.D.",
"M.f.  d I I I I I I I I X h V.F . I U T U Y Y Y Y I X ;.V.S.V.Z.A.Z.Z.Z.Z.Z.D.Z.",
"f.s.s I.~.~.Q.E.Q.~.E.E.9.j M.k ~ ~.~.~.Q.E.Q.E.E.E.E :.A.V.Z.Z.Z.A.Z.Z.Z.A.D.Z.",
"M.;.s c.~.~.~.Q.~.T.Q.E.6.j M.Z ~ ~.~.~.E././.E.E.E.T :.A.Z.A.V.Z.Z.V.Z.D.Z.A.D.",
"M.s.s c.~.~.~.~.~.~.~.E.9.j M.Z ' ~.~.~.~.~.~.~.Y.Y.E :.V.A.A.V.V.=.L V.i.V.D.A.",
"f.;.s I.~.~.~.~.~.~.~.~.1.j M.Z ' ~.~.~.~.~.~.W.E.I.T -.M.V.V.Z.V.e 5 L e P A.A.",
"B.;.s I.~.~.~.~.~.~.E.~.6.j M.Z ' ~.~.~.~.~.~.~.E.Y.I o.m.k.B.V.Z.t 4 A L v.N.D.",
"M.s.s I.~.~.~.~.~.~.~.T.6.j m.Z ' ~.~.~.~.~.~.~.E.Y.Y { =.;.s.B.&.a o q P b.N.C.",
"M.;.s I.).~.~.~.~.E.~.E.5.j M.Z ' ).~.~.~.~.~.~.^.I.I ) ..o.;.;.&.} r w L S } G.",
"M.s.s c.~.~.~.~.~.~.E.E.6.j M.Z ~ ~.~.~.~.~.~.~.E.L.I F ....-.m.V.S.A. .g - 0.Z.",
"m.m.s I.~.~.~.~.~.~.E.E.e.j B.Z ' /.~.~.~.~.~.~.Q.I.U { ....*.f.V.A.F.&.< >.D.D.",
"m.;.s c.~.~.~.~.~.~.E.E.1.j B.Z ' ).W.~.~.~.~.~.Q.Y.T o.-.O.;.M.A.Z.Z.&.[ k.F.F.",
"M.f.s I.~.~.~.~.Q.E.Q.E.6.j M.l ' ).W.W.~./.!.^.!.T.E o.f.s.f.k.A.S.Z.4.q.Z.F.Z.",
"m.;.s I.~.~.~.~././.E.Q.6.j B.D ' ~./.~./././.!.^.T.E %.f.f.M.V.Z.S.Z.j.Z.F.Z.K.",
"m.;.s c.~.~.~.~.E./.E.E.6.j B.l ' /.!./.~.W.~.~.Q.T.E %.V.M.V.Z.Z.S.D.l.F.F.F.F.",
"M.s.s I.~.~.~.~.Q.E.E.~.6.j B.F ' /./.!.W.~.~.~.~.Y.E %.f.k.V.Z.D.A.Z.l.D.Z.Z.D.",
"M.s.s c.~.~.~.~./.E.E.Q.6.j M.l ' /.~.~.~.~.~.~.Q.T.E o.f.f.V.A.F.A.J.H.Q.F.F.D.",
"m.;.h I.~.).~.)././.~.Q.9.j M.F ' /./.Q././.~.~.~.E.E o.;.s.V.Z.A.A.J.G.Q.D.D.D.",
"k.s.y @.<.<.<.<.<.,.<.<.! h M.Z I 1.1.1.1.1.1.1.1.<.s } *.;.f.S.A.F.J.c.P.K.F.F.",
"m.f.j y y u y u u u s s u { M.%.g i f f h h h h h h h  .X.O.f.Z.A.D.J.G.Q.K.A.F.",
"M.M.M.M.M.n.m.m.M.M.M.M.M.M.M.M.M.M.M.M.M.M.V.M.V.V.f.;.| O.f.Z.F.A.L.c.Q.K.D.D.",
"M.M.M.M.M.M.M.M.M.M.M.M.M.V.M.m.M.M.V.M.V.M.A.A.V.V.f.=.| O.f.Z.A.D.G.c.P.K.F.F.",
"M.M.M.M.V.M.M.M.M.V.M.V.M.M.m.g.s.f.g.V.V.V.V.M.V.V.f.O.H O.f.Z.F.A.c.c.L.K.F.K.",
"M.M.M.M.M.M.M.M.M.M.M.M.M.m.=...H G X.d.g.g.k.g.V.k.f.=.H X.g.Z.F.A.G.w.H.K.F.F.",
"M.M.M.M.M.M.M.M.M.M.M.M.M.;.H m x C u.i.d.s.s.f.g.f.f.=.| =.f.V.F.A.G.c.L.K.F.F.",
"M.M.m.M.m.m.M.m.m.M.M.M.f.X.m x n G u.d.d.X.H v / ( ^ 3 > ` d.Z.F.S.C.w.L.K.F.F.",
"m.n.m.m.m.m.m.m.f.m.f.f.s.H m 0 n G u.g.u.N x O @ # 2 2 2 3 y.k.V.S.G.w.L.K.F.V.",
"m.m.s.m.g.s.d.d.g.s.s.g.s.| m x n G u.i.G x x & + 1 h.h.h.h.h.z.V.V.x.w.G.K.V.V.",
"g.g.s.s.d.s.;.p.p.;.;.p.*...B a x G K K N n m p $ = z c ` z.z.z.M.k.w.q.G.Z.l.V.",
"g.g.g.s.p.;.*.*.*...H M B +._ k 8 n N N B ) _ g ; : z `  .k.k.j.8.q.q.:.G.l.q.q.",
"m.s.s.;.=.*.J H D M 0 8 _ #.+.' R k V V ) R W W ] 2.2.2.4.j.j.0.8.8.7.:.w.0.0.0.",
"s.g.p.=.*...F M b 9 6 Z 3.3.5.$.>.$.$.$.] ' +.@.@.@.@.,.t.t.3.0.9.9.7.9.9.0.9.0.",
"s.p.p.=.X.H N p 7 * 8 &.5.5.5.5.5.5.5.5.3.3.3.<.<.>.<.<.1.5.5.3.9.9.9.9.9.9.9.9.",
"s.p.i.*...D M 9 * * ) t.r.r.r.r.0.0.r.e.e.r.r.0.e.r.e.e.e.0.r.0.r.0.r.0.r.0.r.w.",
"s.s.=.*.J D b 6 * * 8.~.Q.T.~.Q.Q.Q.W.W.~.W.W.Q.E.E.Q.~.Q.~.Q.T.~.~.~.~.~././.^.",
"p.p.=.*.J N 0 6 % * :.Q.Q.Q.E.~.Q.Q.~.W.~.~.~.Q.Q.Q.Q.Q.~.~.~.Q.~.~.~.~.~.~.~./."
};
